<?xml version="1.0" standalone="no"?>
<!DOCTYPE svg PUBLIC "-//W3C//DTD SVG 20010904//EN" "http://www.w3.org/TR/2001/REC-SVG-20010904/DTD/svg10.dtd">
<svg xmlns="http://www.w3.org/2000/svg" version="1.0" width="256.000000pt" height="256.000000pt" viewBox="0 0 256.000000 256.000000" preserveAspectRatio="xMidYMid meet">
<metadata>
Created by potrace 1.16, written by Peter Selinger 2001-2019
<meta name="Producer" content="Online-Convert"/></metadata>
<g transform="translate(0.000000,256.000000) scale(0.100000,-0.100000)" fill="#000000" stroke="none">
<path d="M1760 997 c-16 -15 -444 -262 -472 -272 -12 -5 -97 39 -261 134 -134 78 -249 141 -255 141 -12 0 -304 -168 -368 -211 -81 -55 -108 -172 -59 -256 29 -48 23 -44 565 -358 l305 -176 70 4 70 3 399 232 c219 127 410 241 423 254 36 33 63 92 63 135 0 48 -29 110 -66 144 -22 20 -386 239 -398 239 -1 0 -8 -6 -16 -13z"/>
</g>
</svg>
