<?xml version="1.0" encoding="UTF-8"?>
<!-- Generator: https://ezgif.com/png-to-svg -->
<svg version="1.1" xmlns="http://www.w3.org/2000/svg" width="200" height="200">
<path d="M0 0 C2.19 1.57 2.19 1.57 4 4 C4.39 6.7 4.55 9 4.52 11.7 C4.52 12.47 4.53 13.25 4.54 14.04 C4.56 16.59 4.54 19.13 4.53 21.68 C4.53 23.45 4.54 25.23 4.54 27 C4.55 30.72 4.54 34.43 4.52 38.15 C4.5 42.91 4.51 47.67 4.54 52.42 C4.55 56.09 4.55 59.75 4.54 63.41 C4.53 65.17 4.54 66.92 4.55 68.67 C4.56 71.13 4.54 73.58 4.52 76.04 C4.53 76.76 4.53 77.48 4.54 78.22 C4.46 83.26 3.13 86.1 0 90 C-1.83 91.51 -1.83 91.51 -3.67 92.55 C-4.34 92.94 -5 93.33 -5.68 93.73 C-6.37 94.11 -7.05 94.48 -7.75 94.88 C-8.45 95.28 -9.14 95.68 -9.86 96.09 C-11.57 97.07 -13.28 98.04 -15 99 C-10.9 102.43 -6.75 104.88 -2.02 107.31 C1 109 1 109 3.89 111.19 C6.95 113.41 9.37 114.94 13 116 C17.58 114.9 21.22 112.76 25.11 110.22 C27.1 108.93 29.13 107.75 31.19 106.57 C38.03 103.21 38.03 103.21 43 98 C42.3 97.74 41.6 97.47 40.88 97.2 C37.75 95.9 34.84 94.4 31.88 92.75 C30.84 92.19 29.81 91.63 28.74 91.05 C25.44 88.58 24.54 86.81 23 83 C22.72 80.33 22.58 77.9 22.6 75.24 C22.59 74.48 22.58 73.73 22.58 72.95 C22.56 70.48 22.56 68 22.57 65.53 C22.56 63.8 22.56 62.07 22.55 60.34 C22.54 56.73 22.54 53.11 22.55 49.5 C22.57 44.87 22.55 40.24 22.52 35.61 C22.5 32.04 22.5 28.48 22.5 24.91 C22.5 23.2 22.5 21.5 22.49 19.79 C22.47 17.4 22.48 15.02 22.5 12.63 C22.49 11.93 22.48 11.23 22.47 10.51 C22.54 5.75 23.64 3.34 27 0 C29.8 -1.4 31.89 -1.21 35 -1 C37.5 0.03 37.5 0.03 40 1.5 C40.95 2.05 41.9 2.6 42.88 3.16 C43.91 3.77 44.94 4.38 46 5 C47.7 5.96 49.41 6.92 51.11 7.88 C53.49 9.22 55.84 10.59 58.2 11.97 C60.01 13.01 61.84 14.01 63.68 15.01 C64.85 15.67 66.02 16.33 67.19 17 C68.23 17.58 69.28 18.16 70.36 18.75 C74.25 22.06 75.66 26.26 76.28 31.24 C76.39 33.7 76.42 36.14 76.4 38.59 C76.41 39.52 76.42 40.44 76.42 41.4 C76.44 44.43 76.44 47.47 76.43 50.5 C76.44 52.62 76.44 54.74 76.45 56.87 C76.46 61.3 76.46 65.74 76.45 70.18 C76.43 75.86 76.45 81.53 76.48 87.21 C76.5 91.59 76.5 95.96 76.5 100.34 C76.5 102.44 76.5 104.53 76.51 106.62 C76.53 109.55 76.52 112.48 76.5 115.41 C76.51 116.26 76.52 117.12 76.53 118 C76.46 123.8 75.19 128.12 72 133 C70.21 134.7 70.21 134.7 68.38 135.69 C67.7 136.07 67.02 136.46 66.32 136.85 C65.59 137.23 64.87 137.61 64.12 138 C63.37 138.42 62.61 138.84 61.83 139.27 C60.29 140.13 58.74 140.97 57.19 141.81 C54.1 143.49 51.05 145.24 48 147 C46.33 147.95 46.33 147.95 44.63 148.92 C38.96 152.16 33.34 155.48 27.71 158.8 C27.06 159.18 26.41 159.56 25.74 159.94 C23.85 161.05 23.85 161.05 21.63 162.79 C16.87 164.98 11.72 164.96 6.78 163.21 C4.59 162.12 2.52 160.91 0.44 159.62 C-0.33 159.18 -1.1 158.73 -1.89 158.26 C-3.48 157.32 -5.07 156.38 -6.65 155.42 C-8.91 154.06 -11.17 152.72 -13.45 151.39 C-16.29 149.73 -19.12 148.06 -21.95 146.38 C-24.59 144.82 -27.24 143.29 -29.93 141.8 C-45.39 133.23 -45.39 133.23 -48 128 C-48.1 126.63 -48.14 125.26 -48.15 123.89 C-48.16 123.03 -48.17 122.17 -48.18 121.28 C-48.18 120.33 -48.19 119.39 -48.19 118.41 C-48.2 117.42 -48.21 116.42 -48.22 115.4 C-48.24 112.09 -48.26 108.79 -48.27 105.48 C-48.28 104.36 -48.28 103.23 -48.29 102.07 C-48.32 96.1 -48.34 90.14 -48.35 84.17 C-48.37 78.01 -48.41 71.84 -48.46 65.68 C-48.5 60.94 -48.51 56.2 -48.51 51.47 C-48.52 49.19 -48.54 46.92 -48.56 44.65 C-48.59 41.47 -48.59 38.29 -48.58 35.1 C-48.6 34.17 -48.62 33.23 -48.63 32.26 C-48.59 27.9 -48.42 24.94 -45.62 21.48 C-43.11 19.1 -40.86 17.43 -37.83 15.78 C-36.86 15.24 -35.88 14.7 -34.87 14.14 C-33.86 13.6 -32.85 13.06 -31.81 12.5 C-29.82 11.41 -27.82 10.31 -25.83 9.22 C-24.86 8.69 -23.89 8.16 -22.89 7.61 C-19.22 5.56 -15.64 3.39 -12.07 1.18 C-7.73 -1.3 -4.8 -1.09 0 0 Z " fill="#2C2F83" transform="translate(82,21)"/>
<path d="M0 0 C2.5 1.03 2.5 1.03 5 2.5 C5.95 3.05 6.9 3.6 7.88 4.16 C8.91 4.77 9.94 5.38 11 6 C12.7 6.96 14.41 7.92 16.11 8.88 C18.49 10.22 20.84 11.59 23.2 12.97 C25.01 14.01 26.84 15.01 28.68 16.01 C29.85 16.67 31.02 17.33 32.19 18 C33.23 18.58 34.28 19.16 35.36 19.75 C39.23 23.05 40.67 27.25 41.27 32.21 C41.37 34.63 41.37 37.03 41.34 39.45 C41.34 40.81 41.34 40.81 41.34 42.2 C41.34 45.17 41.32 48.15 41.29 51.12 C41.29 53.2 41.28 55.27 41.28 57.35 C41.27 62.78 41.24 68.22 41.21 73.66 C41.18 79.22 41.16 84.77 41.15 90.33 C41.11 101.22 41.06 112.11 41 123 C39 122 39 122 38.1 119.61 C36.87 116.69 36.08 115.95 33.44 114.31 C32.23 113.56 32.23 113.56 31.01 112.8 C30.02 112.2 29.02 111.61 28 111 C27.39 110.63 26.77 110.25 26.14 109.87 C18.69 105.35 11.21 101 3.38 97.19 C-8.83 91.2 -8.83 91.2 -11.15 86.83 C-12.21 83.31 -12.3 79.99 -12.29 76.35 C-12.3 75.6 -12.3 74.84 -12.31 74.07 C-12.33 71.59 -12.33 69.11 -12.34 66.62 C-12.34 64.9 -12.35 63.17 -12.36 61.44 C-12.37 57.81 -12.37 54.19 -12.37 50.57 C-12.37 45.94 -12.4 41.3 -12.43 36.66 C-12.45 33.09 -12.46 29.52 -12.46 25.95 C-12.46 24.24 -12.47 22.53 -12.48 20.82 C-12.5 18.43 -12.5 16.04 -12.49 13.65 C-12.5 12.59 -12.5 12.59 -12.52 11.52 C-12.46 6.75 -11.37 4.35 -8 1 C-5.2 -0.4 -3.11 -0.21 0 0 Z " fill="#1FC0D6" transform="translate(117,20)"/>
<path d="M0 0 C2.19 1.57 2.19 1.57 4 4 C4.39 6.7 4.55 9 4.52 11.7 C4.52 12.47 4.53 13.25 4.54 14.04 C4.56 16.59 4.54 19.13 4.53 21.68 C4.53 23.45 4.54 25.23 4.54 27 C4.55 30.72 4.54 34.43 4.52 38.15 C4.5 42.91 4.51 47.67 4.54 52.42 C4.55 56.09 4.55 59.75 4.54 63.41 C4.53 65.17 4.54 66.92 4.55 68.67 C4.56 71.13 4.54 73.58 4.52 76.04 C4.53 76.76 4.53 77.48 4.54 78.22 C4.46 83.26 3.12 86.1 0 90 C-1.69 91.44 -1.69 91.44 -3.36 92.41 C-3.98 92.78 -4.6 93.15 -5.24 93.53 C-5.89 93.89 -6.53 94.25 -7.19 94.62 C-7.81 94.99 -8.43 95.36 -9.07 95.74 C-12.43 97.69 -15.81 99.4 -19.38 100.94 C-24.37 103.11 -29.08 105.68 -33.81 108.38 C-35.06 109.06 -35.06 109.06 -36.33 109.76 C-41.33 112.61 -44.18 114.98 -47 120 C-47.33 120 -47.66 120 -48 120 C-48.12 107.72 -48.2 95.43 -48.26 83.15 C-48.29 77.45 -48.32 71.74 -48.38 66.04 C-48.43 60.54 -48.46 55.03 -48.47 49.53 C-48.48 47.43 -48.5 45.33 -48.53 43.23 C-48.56 40.29 -48.57 37.34 -48.57 34.4 C-48.59 33.54 -48.6 32.67 -48.62 31.78 C-48.59 27.57 -48.32 24.86 -45.62 21.52 C-43.11 19.11 -40.88 17.44 -37.83 15.78 C-36.86 15.24 -35.88 14.7 -34.87 14.14 C-33.86 13.6 -32.85 13.06 -31.81 12.5 C-29.82 11.41 -27.82 10.31 -25.83 9.22 C-24.86 8.69 -23.89 8.16 -22.89 7.61 C-19.22 5.56 -15.64 3.39 -12.07 1.18 C-7.73 -1.3 -4.8 -1.09 0 0 Z " fill="#1FC1D6" transform="translate(82,21)"/>
</svg>
