<?xml version="1.0" encoding="UTF-8"?>
<!-- Generator: https://ezgif.com/png-to-svg -->
<svg version="1.1" xmlns="http://www.w3.org/2000/svg" width="256" height="256">
<path d="M0 0 C4.3 1.88 5.63 3.21 7.64 7.45 C9.47 12.68 9.42 17.74 9.39 23.23 C9.39 24.33 9.4 25.43 9.4 26.56 C9.42 30.17 9.41 33.79 9.4 37.4 C9.4 39.93 9.4 42.45 9.41 44.97 C9.41 50.25 9.41 55.53 9.39 60.82 C9.37 66.9 9.38 72.99 9.4 79.07 C9.41 84.95 9.41 90.83 9.4 96.71 C9.4 99.2 9.4 101.69 9.41 104.18 C9.42 107.67 9.4 111.15 9.39 114.64 C9.39 115.66 9.4 116.68 9.41 117.73 C9.34 125.56 8.4 132.61 3.05 138.63 C-1.68 142.95 -7.27 145.86 -12.88 148.88 C-14.96 150.02 -17.04 151.16 -19.12 152.3 C-20.49 153.05 -20.49 153.05 -21.89 153.8 C-23.92 154.83 -23.92 154.83 -25 156 C-24.25 156.43 -23.5 156.85 -22.73 157.29 C-20.49 158.57 -18.25 159.85 -16.01 161.13 C-13.45 162.59 -10.9 164.05 -8.34 165.5 C-2.55 168.8 3.22 172.1 8.91 175.55 C9.77 176.06 10.63 176.58 11.52 177.11 C13.1 178.06 14.66 179.02 16.22 179.99 C16.92 180.41 17.62 180.82 18.34 181.25 C18.93 181.62 19.52 181.98 20.13 182.36 C23.52 183.52 26.2 182.38 29.33 180.9 C30.13 180.44 30.92 179.99 31.75 179.52 C32.66 179 33.57 178.48 34.5 177.95 C35.47 177.39 36.44 176.83 37.44 176.25 C38.44 175.68 39.44 175.1 40.47 174.51 C51.04 168.45 61.53 162.24 72 156 C69.11 153.75 66.16 151.87 62.97 150.07 C62.02 149.52 61.06 148.97 60.07 148.41 C58.07 147.27 56.07 146.13 54.06 145 C47.75 141.36 42.95 138.37 39.9 131.53 C38.63 126.53 38.71 121.72 38.73 116.58 C38.72 115.44 38.72 114.3 38.71 113.12 C38.7 109.35 38.7 105.58 38.7 101.81 C38.7 99.19 38.69 96.57 38.69 93.94 C38.68 88.45 38.68 82.96 38.68 77.46 C38.69 71.12 38.68 64.78 38.66 58.43 C38.64 52.32 38.63 46.21 38.64 40.09 C38.64 37.5 38.63 34.9 38.62 32.3 C38.61 28.68 38.62 25.05 38.63 21.42 C38.62 20.35 38.61 19.27 38.6 18.17 C38.65 11.38 39.51 6.96 44 1.62 C48.63 -0.88 52.84 -0.77 58 0 C62.31 1.73 66.13 4.1 70.06 6.56 C71.76 7.59 73.45 8.61 75.15 9.63 C76.91 10.69 78.67 11.77 80.42 12.84 C84 15.01 87.62 17.1 91.26 19.16 C91.85 19.49 92.44 19.83 93.05 20.17 C95.88 21.78 98.71 23.39 101.55 24.99 C117.17 33.93 117.17 33.93 120 42 C120.6 46.99 120.56 51.97 120.53 56.99 C120.54 58.51 120.55 60.04 120.56 61.56 C120.58 65.69 120.58 69.82 120.57 73.95 C120.57 77.4 120.57 80.85 120.58 84.3 C120.6 92.45 120.59 100.59 120.58 108.74 C120.56 117.13 120.58 125.52 120.61 133.91 C120.63 141.13 120.64 148.35 120.63 155.56 C120.63 159.87 120.63 164.17 120.65 168.48 C120.67 172.53 120.66 176.58 120.64 180.62 C120.63 182.11 120.64 183.59 120.65 185.07 C120.71 193.26 120.66 199.7 115 206 C110.13 210.92 104.07 213.99 98.07 217.36 C96.21 218.4 94.35 219.45 92.5 220.5 C89.93 221.95 87.36 223.4 84.79 224.86 C79.05 228.1 73.33 231.39 67.62 234.69 C66.57 235.3 65.51 235.91 64.42 236.53 C56.16 241.3 47.94 246.15 39.76 251.05 C38.91 251.56 38.07 252.06 37.19 252.59 C36.45 253.03 35.71 253.47 34.95 253.93 C29.35 257 23.19 256.72 17 256 C12.73 254.46 9.04 252.26 5.19 249.88 C4.11 249.24 3.04 248.61 1.94 247.96 C-0.29 246.64 -2.52 245.31 -4.73 243.97 C-8.79 241.52 -12.89 239.14 -17 236.77 C-19.95 235.05 -22.9 233.32 -25.85 231.59 C-30.19 229.05 -34.56 226.53 -38.93 224.03 C-40.1 223.36 -41.27 222.69 -42.44 222.02 C-44.66 220.76 -46.88 219.49 -49.1 218.24 C-53.98 215.44 -58.81 212.58 -63.51 209.5 C-64.28 208.99 -65.05 208.49 -65.85 207.97 C-69.81 204.35 -71.74 201.18 -72.37 195.87 C-72.51 191.87 -72.53 187.89 -72.5 183.89 C-72.51 182.35 -72.51 180.81 -72.52 179.27 C-72.53 175.11 -72.52 170.95 -72.5 166.78 C-72.49 162.42 -72.5 158.06 -72.5 153.7 C-72.5 146.37 -72.49 139.05 -72.47 131.72 C-72.44 123.26 -72.44 114.8 -72.45 106.34 C-72.46 98.19 -72.45 90.04 -72.44 81.89 C-72.43 78.42 -72.43 74.96 -72.44 71.5 C-72.44 67.42 -72.43 63.34 -72.41 59.26 C-72.41 57.76 -72.41 56.26 -72.41 54.77 C-72.42 52.72 -72.4 50.68 -72.39 48.63 C-72.39 47.49 -72.38 46.35 -72.38 45.17 C-71.65 39.06 -68.81 35.28 -64.19 31.56 C-59.69 28.36 -54.87 25.7 -50.06 23 C-48.34 22.02 -46.62 21.04 -44.89 20.06 C-43.71 19.39 -42.53 18.72 -41.35 18.05 C-35.03 14.46 -28.77 10.8 -22.5 7.12 C-20.51 5.96 -18.52 4.8 -16.53 3.63 C-15.7 3.15 -14.87 2.66 -14.02 2.16 C-9.35 -0.52 -5.33 -0.56 0 0 Z " fill="#292977" transform="translate(104,0)"/>
<path d="M0 0 C4.31 1.73 8.13 4.1 12.06 6.56 C13.76 7.59 15.45 8.61 17.15 9.63 C18.91 10.69 20.67 11.77 22.42 12.84 C26 15.01 29.62 17.1 33.26 19.16 C33.85 19.49 34.44 19.83 35.05 20.17 C37.88 21.78 40.71 23.39 43.55 24.99 C59.14 33.91 59.14 33.91 62 42 C62.57 46.79 62.51 51.57 62.45 56.38 C62.45 57.84 62.45 59.3 62.46 60.76 C62.46 64.7 62.43 68.65 62.41 72.6 C62.38 76.72 62.38 80.85 62.37 84.98 C62.36 92.8 62.33 100.61 62.29 108.42 C62.24 117.32 62.22 126.22 62.2 135.11 C62.16 153.41 62.09 171.7 62 190 C61.7 189.4 61.4 188.8 61.09 188.18 C55.16 176.37 43.45 171.46 32.28 165.36 C28.99 163.56 25.76 161.7 22.56 159.75 C18.49 157.27 14.33 154.98 10.14 152.7 C6.31 150.63 2.49 148.54 -1.31 146.44 C-2.32 145.89 -2.32 145.89 -3.34 145.33 C-11.21 140.96 -16.25 136.76 -19 128 C-19.54 124.07 -19.54 120.2 -19.5 116.24 C-19.51 115.1 -19.51 113.96 -19.52 112.78 C-19.53 109.03 -19.51 105.27 -19.5 101.52 C-19.5 98.9 -19.5 96.28 -19.5 93.66 C-19.5 88.19 -19.49 82.71 -19.47 77.24 C-19.44 70.91 -19.44 64.59 -19.45 58.27 C-19.46 52.17 -19.45 46.08 -19.44 39.98 C-19.44 37.39 -19.44 34.8 -19.44 32.21 C-19.44 28.6 -19.43 24.98 -19.4 21.37 C-19.41 20.3 -19.41 19.24 -19.42 18.13 C-19.35 11.36 -18.48 6.94 -14 1.62 C-9.37 -0.88 -5.16 -0.77 0 0 Z " fill="#1FC2D7" transform="translate(162,0)"/>
<path d="M0 0 C4.3 1.88 5.63 3.21 7.64 7.45 C9.47 12.68 9.42 17.74 9.39 23.23 C9.39 24.33 9.4 25.43 9.4 26.56 C9.42 30.17 9.41 33.79 9.4 37.4 C9.4 39.93 9.4 42.45 9.41 44.97 C9.41 50.25 9.41 55.53 9.39 60.82 C9.37 66.9 9.38 72.99 9.4 79.07 C9.41 84.95 9.41 90.83 9.4 96.71 C9.4 99.2 9.4 101.69 9.41 104.18 C9.42 107.67 9.4 111.15 9.39 114.64 C9.39 115.66 9.4 116.68 9.41 117.73 C9.34 125.57 8.4 132.62 3.04 138.64 C-1.64 142.9 -7.14 145.77 -12.69 148.75 C-14.34 149.66 -14.34 149.66 -16.03 150.59 C-19.35 152.4 -22.67 154.2 -26 156 C-36.06 161.46 -46.11 166.94 -55.94 172.81 C-56.68 173.24 -57.42 173.68 -58.18 174.12 C-62.77 176.91 -65.78 179.69 -69 184 C-70 185.33 -71 186.67 -72 188 C-72.07 169.07 -72.12 150.14 -72.16 131.2 C-72.17 122.41 -72.19 113.62 -72.23 104.83 C-72.26 97.17 -72.28 89.51 -72.28 81.84 C-72.29 77.79 -72.3 73.73 -72.32 69.67 C-72.34 65.85 -72.34 62.03 -72.34 58.21 C-72.34 56.81 -72.35 55.41 -72.36 54.01 C-72.37 52.1 -72.37 50.18 -72.36 48.26 C-72.36 47.19 -72.37 46.12 -72.37 45.02 C-71.63 39 -68.75 35.23 -64.19 31.56 C-59.69 28.36 -54.87 25.7 -50.06 23 C-48.34 22.02 -46.62 21.04 -44.89 20.06 C-43.71 19.39 -42.53 18.72 -41.35 18.05 C-35.03 14.46 -28.77 10.8 -22.5 7.12 C-20.51 5.96 -18.52 4.8 -16.53 3.63 C-15.7 3.15 -14.87 2.66 -14.02 2.16 C-9.35 -0.52 -5.33 -0.56 0 0 Z " fill="#1EC1D6" transform="translate(104,0)"/>
<path d="M0 0 C1.02 0.37 1.02 0.37 2.06 0.75 C0.73 1.42 -0.6 2.08 -1.94 2.75 C-2.95 3.27 -3.96 3.78 -5 4.31 C-7.94 5.75 -7.94 5.75 -10.94 6.75 C-10.94 27.21 -10.94 47.67 -10.94 68.75 C-17.84 65.3 -24.54 61.86 -31.19 58 C-32.05 57.53 -32.9 57.05 -33.79 56.56 C-39.89 53 -43.82 49.14 -46.94 42.75 C-48.32 37.3 -47.63 32.24 -44.81 27.38 C-39.61 19.66 -30.86 15.64 -23 11.19 C-21.83 10.52 -20.67 9.86 -19.5 9.19 C-17.29 7.92 -15.07 6.66 -12.84 5.41 C-11.11 4.42 -9.38 3.41 -7.67 2.39 C-3.23 -0.28 -3.23 -0.28 0 0 Z " fill="#1E1E58" transform="translate(78.9375,156.25)"/>
<path d="M0 0 C7.52 0.97 16.16 6.43 21.19 12.12 C24.5 17.39 26.13 22.76 25 29 C20.7 38.98 11.36 44.32 2 49 C1.01 49 0.02 49 -1 49 C-1.03 42.34 -1.04 35.69 -1.05 29.03 C-1.06 26.76 -1.07 24.5 -1.08 22.23 C-1.09 18.98 -1.09 15.73 -1.1 12.48 C-1.1 11.46 -1.11 10.44 -1.11 9.39 C-1.11 8.45 -1.11 7.51 -1.11 6.54 C-1.12 5.71 -1.12 4.88 -1.12 4.02 C-1 2 -1 2 0 0 Z " fill="#161743" transform="translate(199,169)"/>
<path d="M0 0 C0 12.87 0 25.74 0 39 C-14.17 31.27 -14.17 31.27 -17 24 C-18.09 18.38 -17.77 13.62 -14.88 8.62 C-11.09 3.37 -6.74 -1.68 0 0 Z " fill="#13143A" transform="translate(49,175)"/>
</svg>
